<?xml version="1.0" encoding="UTF-8" standalone="no"?>
<svg
   xmlns:dc="http://purl.org/dc/elements/1.1/"
   xmlns:cc="http://creativecommons.org/ns#"
   xmlns:rdf="http://www.w3.org/1999/02/22-rdf-syntax-ns#"
   xmlns:svg="http://www.w3.org/2000/svg"
   xmlns="http://www.w3.org/2000/svg"
   xmlns:sodipodi="http://sodipodi.sourceforge.net/DTD/sodipodi-0.dtd"
   xmlns:inkscape="http://www.inkscape.org/namespaces/inkscape"
   inkscape:version="1.0 (4035a4fb49, 2020-05-01)"
   sodipodi:docname="bazile_black.svg"
   viewBox="0 0 400 83"
   height="83"
   width="400"
   id="svg10"
   version="1.1">
  <metadata
     id="metadata16">
    <rdf:RDF>
      <cc:Work
         rdf:about="">
        <dc:format>image/svg+xml</dc:format>
        <dc:type
           rdf:resource="http://purl.org/dc/dcmitype/StillImage" />
        <dc:title></dc:title>
      </cc:Work>
    </rdf:RDF>
  </metadata>
  <defs
     id="defs14" />
  <sodipodi:namedview
     inkscape:current-layer="g18"
     inkscape:window-maximized="0"
     inkscape:window-y="107"
     inkscape:window-x="2337"
     inkscape:cy="133.14468"
     inkscape:cx="209.15056"
     inkscape:zoom="1.3275"
     showgrid="false"
     id="namedview12"
     inkscape:window-height="776"
     inkscape:window-width="1066"
     inkscape:pageshadow="2"
     inkscape:pageopacity="0"
     guidetolerance="10"
     gridtolerance="10"
     objecttolerance="10"
     borderopacity="1"
     bordercolor="#666666"
     pagecolor="#ffffff" />
  <g
     id="g18"
     inkscape:label="Image"
     inkscape:groupmode="layer">
    <g
       transform="translate(-8.2862522,9.7928451)"
       id="g22">
      <path
         id="path36"
         d="m 129.5,60 c 0.33992,-0.55 1.26648,-1 2.05902,-1 2.28786,0 2.09386,-24.802115 -0.20716,-26.484665 -1.38375,-1.01182 -0.78217,-1.3047 3.75,-1.825709 2.96898,-0.341308 7.11946,-0.225863 9.22328,0.256544 6.72161,1.54126 8.75407,7.22238 4.12025,11.516859 -2.54118,2.355091 -2.54335,2.371105 -0.41159,3.047698 2.57674,0.817825 4.83568,5.721239 4.19051,9.096221 C 151.3121,59.378857 147.65595,61 137.80612,61 132.11133,61 129.10561,60.638132 129.5,60 Z m 16.9433,-3.222506 c 2.08833,-2.981514 1.96083,-4.994011 -0.51588,-8.142635 C 144.40862,46.704023 142.93905,46 140.42742,46 H 137 v 6.5 6.5 h 3.9433 c 2.94127,0 4.33886,-0.564757 5.5,-2.222506 z m -1.64223,-15.057792 c 2.17581,-1.754865 1.02698,-6.974086 -1.89425,-8.605673 C 138.56931,30.691403 137,32.135106 137,38.54807 v 5.610841 l 3.25,-0.694928 c 1.7875,-0.382211 3.83548,-1.167137 4.55107,-1.744281 z m 9.64443,17.7453 c 1.08287,-0.818984 4.21971,-7.540733 7.07459,-15.159728 2.821,-7.528585 5.60712,-13.847677 6.19137,-14.042428 0.58425,-0.194751 3.4579,6.163723 6.38589,14.129941 3.40888,9.274607 5.90058,14.634915 6.92779,14.903536 1.149,0.300471 4.05902,-3.37077 10.25566,-12.93841 L 199.93228,33 h -6.35485 -6.35485 l -0.6566,3.5 C 185.63295,41.473449 184,40.837062 184,35.5 V 31 h 10.5 c 5.775,0 10.5,0.287731 10.5,0.639401 0,0.738266 -3.35199,6.232203 -11.35479,18.610599 l -5.657,8.75 h 6.96058 6.96058 l 0.65661,-3.5 C 203.4964,50.540404 205,51.158145 205,56.5 V 61 h -16.5 c -9.33333,0 -16.5,-0.398148 -16.5,-0.916667 0,-0.504166 0.49707,-1.082356 1.1046,-1.284865 0.7898,-0.263269 0.74074,-1.582636 -0.17216,-4.629623 l -1.27675,-4.261423 -4.98201,0.296289 c -4.80419,0.285714 -5.02992,0.435202 -6.32468,4.188359 -1.20363,3.489022 -1.16178,4.029398 0.40416,5.218196 1.52484,1.157598 1.11142,1.326127 -3.25316,1.326127 -4.61605,0 -4.8506,-0.112988 -3.0545,-1.471391 z m 14.24916,-17.097401 -2.07483,-5.632398 -1.16706,3.382398 C 162.55782,48.507776 162.46991,48 166.81735,48 h 3.95213 z M 209,60 c 0,-0.55 0.675,-1 1.5,-1 1.25422,0 1.5,-2.071084 1.5,-12.639757 0,-10.865126 -0.2457,-12.826272 -1.75,-13.968197 -1.5199,-1.153769 -0.9862,-1.332621 4.05902,-1.360243 3.62529,-0.01985 5.57668,0.344116 5.19098,0.968197 -0.33992,0.55 -1.26648,1 -2.05902,1 C 216.26024,33 216,35.347746 216,46 c 0,10.888889 0.24359,13 1.5,13 0.825,0 1.5,0.45 1.5,1 0,0.55 -2.25,1 -5,1 -2.75,0 -5,-0.45 -5,-1 z m 14,0 c 0,-0.55 0.675,-1 1.5,-1 1.25422,0 1.5,-2.071084 1.5,-12.639757 0,-10.865126 -0.2457,-12.826272 -1.75,-13.968197 -1.5199,-1.153769 -0.9862,-1.332621 4.05902,-1.360243 3.62529,-0.01985 5.57668,0.344116 5.19098,0.968197 -0.33992,0.55 -1.26648,1 -2.05902,1 C 230.25997,33 230,35.353917 230,46.047717 v 13.047718 l 6.19023,-0.297718 C 242.24711,58.506413 242.39851,58.429991 243.21882,55.25 244.43032,50.553494 246,51.258984 246,56.5 V 61 h -11.5 c -7,0 -11.5,-0.391304 -11.5,-1 z m 25,0 c 0,-0.55 0.675,-1 1.5,-1 1.25422,0 1.5,-2.071084 1.5,-12.639757 0,-10.865126 -0.2457,-12.826272 -1.75,-13.968197 -1.49024,-1.131251 -0.15431,-1.33316 9,-1.360243 L 269,31 v 4.5 c 0,5.337062 -1.63295,5.973449 -2.56598,1 -0.64406,-3.43317 -0.74995,-3.5 -5.54531,-3.5 H 256 v 5.5 c 0,5.444444 0.0303,5.5 3,5.5 2.33333,0 3,-0.444444 3,-2 0,-1.1 0.45,-2 1,-2 0.55,0 1,2.25 1,5 0,5.018935 -1.3122,6.73816 -2.28975,3 -0.35342,-1.351482 -1.36401,-2 -3.11663,-2 C 256.06814,46 256,46.170767 256,52.5 V 59 h 5.45469 c 5.44219,0 5.45619,-0.008 6.11129,-3.5 C 268.4964,50.540404 270,51.158145 270,56.5 V 61 h -11 c -6.66667,0 -11,-0.393939 -11,-1 z m 2,-33 c 0,-0.596491 3.83333,-1 9.5,-1 5.66667,0 9.5,0.403509 9.5,1 0,0.596491 -3.83333,1 -9.5,1 -5.66667,0 -9.5,-0.403509 -9.5,-1 z m -0.88129,-6.44282 C 248.50342,18.113629 248,15.174506 248,14.025795 c 0,-1.14871 -0.675,-2.347586 -1.5,-2.664169 -2.07665,-0.796884 -1.91285,-3.5877828 0.18683,-3.1834208 0.93578,0.1802151 2.06573,1.7870768 2.53783,3.6089628 1.28724,4.967623 3.09164,2.856457 2.53247,-2.9630048 -0.39453,-4.105955 -0.21065,-4.8655691 1.11598,-4.6100826 0.8736,0.1682386 1.63255,1.2013954 1.68657,2.2959039 C 254.77725,10.918271 255.03912,12 255.88871,12 c 1.07205,0 2.61551,-6.6074017 2.27756,-9.75 -0.15306,-1.42325825 0.29852,-2.25 1.229,-2.25 0.96232,0 1.44352,0.96538358 1.39159,2.7918109 -0.0936,3.2928285 2.15243,10.6022301 2.99804,9.7566181 0.32207,-0.322066 0.83972,-2.394006 1.15034,-4.604311 0.55755,-3.9674266 2.7607,-5.3180649 2.35564,-1.444118 -0.11502,1.1 0.0379,3.569318 0.33984,5.487373 0.51653,3.28128 0.6323,3.373404 1.95912,1.55887 C 270.36543,12.485567 271,10.803749 271,9.8088704 271,8.8139917 271.675,8 272.5,8 c 0.825,0 1.5,0.675 1.5,1.5 0,0.825 -0.40153,1.5 -0.89228,1.5 -0.49076,0 -1.66423,3.15 -2.60772,7 l -1.71544,7 H 259.511 250.23743 Z M 261,20.5 c 0,-0.825 -0.675,-1.5 -1.5,-1.5 -0.825,0 -1.5,0.675 -1.5,1.5 0,0.825 0.675,1.5 1.5,1.5 0.825,0 1.5,-0.675 1.5,-1.5 z"
         style="fill:#b9b9b9;fill-opacity:1" />
      <path
         id="path34"
         d="m 129.5,60 c 0.33992,-0.55 1.26648,-1 2.05902,-1 C 132.73915,59 133,56.666089 133,46.106989 c 0,-11.321669 -0.21328,-12.98602 -1.75,-13.656159 -2.48841,-1.085159 7.23042,-2.576281 11.75,-1.802756 7.42894,1.271459 10.24026,7.371223 5.44539,11.814955 -2.54118,2.355091 -2.54335,2.371105 -0.41159,3.047698 2.57674,0.817825 4.83568,5.721239 4.19051,9.096221 C 151.3121,59.378857 147.65595,61 137.80612,61 132.11133,61 129.10561,60.638132 129.5,60 Z m 16.9433,-3.222506 c 2.08833,-2.981514 1.96083,-4.994011 -0.51588,-8.142635 C 144.40862,46.704023 142.93905,46 140.42742,46 H 137 v 6.5 6.5 h 3.9433 c 2.94127,0 4.33886,-0.564757 5.5,-2.222506 z M 144.75,41.762083 C 148.40155,38.820479 144.57807,32 139.27749,32 137.15725,32 137,32.419756 137,38.079455 v 6.079456 l 3.25,-0.694928 c 1.7875,-0.382211 3.8125,-1.148066 4.5,-1.7019 z m 9.75,17.668709 c 1.14998,-0.865707 4.18242,-7.317282 7.13501,-15.179867 2.82426,-7.520847 5.56394,-13.817241 6.08818,-13.991988 0.52424,-0.174747 3.36381,6.190987 6.31015,14.146076 5.35131,14.448477 7.38914,17.338146 9.66876,13.710437 0.55832,-0.888498 4.45096,-6.90295 8.65032,-13.36545 L 199.98761,33 h -6.38251 -6.38252 l -0.6566,3.5 C 185.63295,41.473449 184,40.837062 184,35.5 V 31 h 10.60699 c 8.68977,0 10.50971,0.253498 10.06881,1.402474 -0.296,0.77136 -3.10807,5.38386 -6.24905,10.25 C 195.28577,47.518613 191.64916,53.1875 190.34539,55.25 L 187.97491,59 h 6.96723 6.96723 l 0.65661,-3.5 C 203.4964,50.540404 205,51.158145 205,56.5 V 61 H 188.5 C 178.16667,61 172,60.626263 172,60 c 0,-0.55 0.61923,-1 1.37607,-1 1.1314,0 1.08695,-0.807487 -0.25,-4.541361 l -1.62607,-4.54136 -4.90416,0.29136 c -4.71491,0.280118 -4.95597,0.441553 -6.24684,4.183431 -1.20363,3.489022 -1.16178,4.029398 0.40416,5.218196 1.52484,1.157598 1.11142,1.326127 -3.25316,1.326127 -4.67163,0 -4.86865,-0.09888 -3,-1.505601 z M 168.98541,42.96298 c -1.09198,-2.770362 -2.01712,-5.357862 -2.05587,-5.75 -0.0691,-0.698861 -1.94942,4.087136 -3.35408,8.53702 -0.65659,2.08005 -0.40411,2.25 3.34256,2.25 h 4.0528 z M 209,60 c 0,-0.55 0.675,-1 1.5,-1 1.25422,0 1.5,-2.071084 1.5,-12.639757 0,-10.865126 -0.2457,-12.826272 -1.75,-13.968197 -1.5199,-1.153769 -0.9862,-1.332621 4.05902,-1.360243 3.62529,-0.01985 5.57668,0.344116 5.19098,0.968197 -0.33992,0.55 -1.26648,1 -2.05902,1 C 216.26024,33 216,35.347746 216,46 c 0,10.888889 0.24359,13 1.5,13 0.825,0 1.5,0.45 1.5,1 0,0.55 -2.25,1 -5,1 -2.75,0 -5,-0.45 -5,-1 z m 14,0 c 0,-0.55 0.675,-1 1.5,-1 1.25422,0 1.5,-2.071084 1.5,-12.639757 0,-10.865126 -0.2457,-12.826272 -1.75,-13.968197 -1.5199,-1.153769 -0.9862,-1.332621 4.05902,-1.360243 3.62529,-0.01985 5.57668,0.344116 5.19098,0.968197 -0.33992,0.55 -1.26648,1 -2.05902,1 C 230.25997,33 230,35.353917 230,46.047717 v 13.047718 l 6.2164,-0.297718 C 242.28121,58.50726 242.45544,58.420746 243.36106,55.25 244.68552,50.61283 246,51.235465 246,56.5 V 61 h -11.5 c -7,0 -11.5,-0.391304 -11.5,-1 z m 25,0 c 0,-0.55 0.675,-1 1.5,-1 1.25612,0 1.5,-2.10559 1.5,-12.95031 0,-11.278664 -0.22589,-13.08188 -1.75,-13.969591 -1.26847,-0.738818 1.20795,-1.027649 9,-1.04969 L 269,31 v 4.5 c 0,5.341855 -1.5036,5.959596 -2.43402,1 C 265.9205,33.059282 265.82545,33 260.95469,33 H 256 v 5.5 c 0,5.444444 0.0303,5.5 3,5.5 2.33333,0 3,-0.444444 3,-2 0,-1.1 0.45,-2 1,-2 0.55,0 1,2.25 1,5 0,5.018935 -1.3122,6.73816 -2.28975,3 -0.35342,-1.351482 -1.36401,-2 -3.11663,-2 C 256.06814,46 256,46.170767 256,52.5 V 59 h 5.45469 c 5.44219,0 5.45619,-0.008 6.11129,-3.5 C 268.4964,50.540404 270,51.158145 270,56.5 V 61 h -11 c -6.66667,0 -11,-0.393939 -11,-1 z m 2,-33 c 0,-0.596491 3.83333,-1 9.5,-1 5.66667,0 9.5,0.403509 9.5,1 0,0.596491 -3.83333,1 -9.5,1 -5.66667,0 -9.5,-0.403509 -9.5,-1 z m -1.09683,-8.610189 c -0.72264,-3.635604 -1.89648,-6.833749 -2.60853,-7.106989 -1.9876,-0.762711 -1.57971,-3.4918134 0.45536,-3.046756 0.9625,0.2104929 1.62927,0.9431722 1.48172,1.6281763 -0.14756,0.6850037 0.39924,2.1984927 1.21511,3.3633087 1.13032,1.613765 1.59141,1.779221 1.93718,0.695148 1.0494,-3.290088 1.28806,-7.0073352 0.48188,-7.5055832 C 250.46608,5.551988 250.87323,4 252.5,4 c 0.88484,0 1.5056,0.9227354 1.51365,2.25 0.0192,3.1670435 1.07643,6.75 1.99169,6.75 0.86843,0 2.41739,-6.2311566 2.46407,-9.9124824 0.0168,-1.3268653 0.56378,-2.59209565 1.21546,-2.81162298 0.7405,-0.24944823 1.15444,0.67100182 1.10374,2.45429328 -0.12264,4.3135114 2.24056,10.8325651 3.31312,9.1394571 0.4772,-0.753305 0.87454,-2.832145 0.88296,-4.619645 0.0106,-2.2579714 0.487,-3.25 1.56062,-3.25 1.21698,0 1.40927,0.7251847 0.90502,3.413061 -0.35216,1.8771835 -0.31553,4.436307 0.0814,5.686942 0.69465,2.188658 0.77317,2.203493 2.09498,0.395809 C 270.38202,12.462873 271,10.803749 271,9.8088704 271,8.8139917 271.675,8 272.5,8 c 1.69038,0 2.06813,2.643955 0.4546,3.1818 -0.57497,0.191656 -1.7367,3.379156 -2.58163,7.083333 L 268.83674,25 h -9.30983 -9.30984 z M 254.5,21 c 0.33992,-0.55 0.14148,-1 -0.44098,-1 C 253.47656,20 253,20.45 253,21 c 0,0.55 0.19844,1 0.44098,1 0.24254,0 0.7191,-0.45 1.05902,-1 z m 6.5,-0.5 c 0,-0.825 -0.675,-1.5 -1.5,-1.5 -0.825,0 -1.5,0.675 -1.5,1.5 0,0.825 0.675,1.5 1.5,1.5 0.825,0 1.5,-0.675 1.5,-1.5 z m 5,0.5 c 0,-0.55 -0.47656,-1 -1.05902,-1 -0.58246,0 -0.7809,0.45 -0.44098,1 0.33992,0.55 0.81648,1 1.05902,1 C 265.80156,22 266,21.55 266,21 Z"
         style="fill:#a3a3a3;fill-opacity:1" />
      <path
         id="path32"
         d="m 130,60 c 0,-0.55 0.675,-1 1.5,-1 1.25422,0 1.5,-2.071084 1.5,-12.639757 0,-10.865126 -0.2457,-12.826272 -1.75,-13.968197 -1.54504,-1.17285 -1.22295,-1.353619 2.75,-1.543428 9.91451,-0.473667 13.42955,0.351137 15.59759,3.659974 2.10427,3.211524 1.22483,6.53381 -2.30688,8.714799 -2.04078,1.260272 -2.32044,1.730541 -1.04071,1.75 5.70492,0.08675 7.95143,10.149806 3.11514,13.954029 C 147.17647,60.64903 145.31373,61 138.36514,61 133.45505,61 130,60.586971 130,60 Z m 16.4433,-3.222506 C 149.89653,51.847312 146.65087,46 140.46104,46 H 137 v 6.5 6.5 h 3.9433 c 2.94127,0 4.33886,-0.564757 5.5,-2.222506 z M 144.65469,41.871617 C 148.36681,38.790831 144.66776,32 139.27749,32 137.15539,32 137,32.417906 137,38.125 v 6.125 l 3.15469,-0.630938 c 1.73508,-0.347017 3.76008,-1.133367 4.5,-1.747445 z m 10.0402,17.356147 c 1.32415,-1.042336 3.9672,-6.488329 6.66237,-13.727764 5.89041,-15.822087 5.75471,-15.5 6.53027,-15.5 0.37046,0 3.076,6.486554 6.01231,14.414565 3.69624,9.97981 5.87868,14.555761 7.09373,14.873503 1.7363,0.454052 2.50881,-0.582043 15.68599,-21.038068 l 3.3819,-5.25 h -6.45128 c -6.34949,0 -6.46163,0.04715 -7.10766,2.988532 C 185.45056,40.778076 184,40.529112 184,35.559017 V 31 h 10.60699 c 8.52644,0 10.50474,0.266462 10.08569,1.358468 -0.28671,0.747157 -3.84406,6.484657 -7.90523,12.75 -4.06116,6.265343 -7.72628,11.954032 -8.14471,12.641532 -0.5806,0.95396 0.91695,1.25 6.32324,1.25 7.08198,0 7.08419,-8.71e-4 7.68818,-3.020809 C 203.61375,51.181235 205,51.454126 205,56.440983 V 61 H 188.5 C 178.16667,61 172,60.626263 172,60 c 0,-0.55 0.64769,-1 1.4393,-1 1.23621,0 1.22062,-0.641816 -0.1105,-4.548427 l -1.54981,-4.548428 -5.00576,0.298428 c -4.7663,0.284151 -5.07798,0.480092 -6.51546,4.09608 -1.40653,3.538149 -1.3815,3.894722 0.36627,5.218196 1.70141,1.288369 1.41073,1.421434 -3.12404,1.430112 -4.91707,0.0094 -4.9636,-0.01909 -2.80511,-1.718197 z M 169.43897,43.75 c -0.80977,-2.3375 -1.73137,-4.925 -2.04799,-5.75 -0.37955,-0.988966 -1.20656,0.0331 -2.42746,3 -2.67279,6.495144 -2.52911,7 1.99212,7 h 3.95564 z M 209,60 c 0,-0.55 0.675,-1 1.5,-1 1.25612,0 1.5,-2.10559 1.5,-12.95031 0,-11.278664 -0.22589,-13.08188 -1.75,-13.969591 -1.32448,-0.771441 -0.29108,-1.010219 4.25,-0.98201 5.04464,0.03134 5.64174,0.210054 3.75,1.122406 -2.16027,1.041857 -2.25,1.5975 -2.25,13.932319 C 216,56.905868 216.2445,59 217.5,59 c 0.825,0 1.5,0.45 1.5,1 0,0.55 -2.25,1 -5,1 -2.75,0 -5,-0.45 -5,-1 z m 14,0 c 0,-0.55 0.675,-1 1.5,-1 1.25612,0 1.5,-2.10559 1.5,-12.95031 0,-11.278664 -0.22589,-13.08188 -1.75,-13.969591 -1.32448,-0.771441 -0.29108,-1.010219 4.25,-0.98201 5.04464,0.03134 5.64174,0.210054 3.75,1.122406 -2.16027,1.041857 -2.25,1.5975 -2.25,13.932319 V 59 h 6.38871 6.38871 l 0.6566,-3.5 C 244.36705,50.526551 246,51.162938 246,56.5 V 61 h -11.5 c -7,0 -11.5,-0.391304 -11.5,-1 z m 26.25,-0.392046 c 1.50366,-1.141439 1.75,-3.100705 1.75,-13.918506 0,-10.935576 -0.22997,-12.724014 -1.75,-13.609349 -1.26847,-0.738818 1.20795,-1.027649 9,-1.04969 L 269,31 v 4.559017 c 0,4.970095 -1.45056,5.219059 -2.50252,0.429515 C 265.87718,33.164327 265.57053,33 260.92054,33 H 256 v 5.5 c 0,5.444444 0.0303,5.5 3,5.5 1.94539,0 3,-0.506557 3,-1.440983 0,-0.792541 0.45,-1.719098 1,-2.059017 0.61633,-0.380914 1,1.322949 1,4.440983 C 264,47.723442 263.55,50 263,50 c -0.55,0 -1,-0.9 -1,-2 0,-1.555556 -0.66667,-2 -3,-2 h -3 v 6.5 6.5 h 5.42054 c 5.20512,0 5.44664,-0.118774 6.07694,-2.988532 C 268.54944,51.221924 270,51.470888 270,56.440983 V 61 l -11.25,-0.0318 c -9.57009,-0.02706 -10.98868,-0.230173 -9.5,-1.360243 z M 251,27 c 0,-0.592593 3.66667,-1 9,-1 5.33333,0 9,0.407407 9,1 0,0.592593 -3.66667,1 -9,1 -5.33333,0 -9,-0.407407 -9,-1 z m -1.02232,-4.558709 c -0.53505,-1.407291 -1.22743,-4.444791 -1.53861,-6.75 -0.44766,-3.316115 -0.33338,-3.825877 0.54726,-2.441291 0.61218,0.9625 1.49342,1.75 1.95832,1.75 1.09348,0 1.87044,-7.996248 0.8389,-8.6337705 C 250.45193,5.5432386 250.91919,4 252.5,4 c 0.88484,0 1.5056,0.9227354 1.51365,2.25 0.0192,3.1670435 1.07643,6.75 1.99169,6.75 0.81927,0 2.41273,-6.1434295 2.46407,-9.5 0.0452,-2.95435741 2.01949,-3.42536454 2.09583,-0.5 0.0359,1.375 0.65543,4.2546192 1.37678,6.3991538 1.14374,3.4003102 1.44209,3.6658702 2.33198,2.0757152 0.56125,-1.002891 0.9843,-3.0950101 0.94011,-4.6491536 C 265.16839,5.2178506 265.66208,4 266.35958,4 c 0.8017,0 1.21104,1.64343 1.18312,4.75 -0.0501,5.570043 1.48849,7.032512 2.89309,2.75 1.26048,-3.8431307 1.24021,-3.8182788 2.48656,-3.0479881 0.71233,0.4402408 0.60206,1.3667538 -0.3392,2.8501351 C 271.8161,12.510966 270.6245,16.0875 269.93513,19.25 L 268.68174,25 h -8.86562 c -8.59078,0 -8.89578,-0.07932 -9.83844,-2.558709 z m 4.47961,-1.372193 c 0.31644,-0.511996 0.11799,-1.213553 -0.44098,-1.559017 C 253.45734,19.164618 253,19.583524 253,20.440983 c 0,1.756526 0.60006,2.015159 1.45729,0.628115 z M 261,20.5 c 0,-0.825 -0.675,-1.5 -1.5,-1.5 -0.825,0 -1.5,0.675 -1.5,1.5 0,0.825 0.675,1.5 1.5,1.5 0.825,0 1.5,-0.675 1.5,-1.5 z m 5,-0.05902 c 0,-0.857459 -0.45734,-1.276365 -1.01631,-0.930902 -0.55897,0.345464 -0.75742,1.047021 -0.44098,1.559017 C 265.39994,22.456142 266,22.197509 266,20.440983 Z M 245,9.5 c 0,-1.0299581 0.6554,-1.5204305 1.75,-1.3096291 2.10784,0.4059334 1.97493,2.1806821 -0.19718,2.6329531 C 245.64684,11.011966 245,10.460727 245,9.5 Z"
         style="fill:#8c8c8c;fill-opacity:1" />
      <path
         id="path30"
         d="m 130,60 c 0,-0.55 0.675,-1 1.5,-1 1.25885,0 1.5,-2.15852 1.5,-13.426676 0,-11.946425 -0.19293,-13.477094 -1.75,-13.883998 -0.9625,-0.251528 1.98295,-0.509524 6.54545,-0.573325 7.55472,-0.105643 8.51464,0.103176 10.75,2.338544 3.27163,3.27163 3.09394,5.829659 -0.62218,8.956561 C 146.23108,43.834998 145.47122,45 146.23471,45 c 0.76349,0 2.37302,0.91753 3.57673,2.038955 3.069,2.859212 2.9433,8.297217 -0.26599,11.5065 C 147.32237,60.768536 146.28507,61 138.54545,61 133.51515,61 130,60.588652 130,60 Z m 14.74768,-1.487303 c 2.523,-0.725129 3.78389,-4.258632 2.84892,-7.983832 -0.68553,-2.731361 -2.46912,-3.942825 -7.3466,-4.990008 L 137,44.841089 v 6.996122 c 0,8.386174 0.44912,8.77314 7.74768,6.675486 z m -1.39704,-15.45591 c 2.8507,-1.083833 3.67017,-3.480547 2.40588,-7.036435 C 144.66654,32.954734 143.28719,32.035009 139.75,32.015313 137.05385,32.0003 137,32.1175 137,38 c 0,6.532915 0.79763,7.168038 6.35064,5.056787 z M 154,60.106989 c 0,-0.491156 0.59495,-1.121317 1.32212,-1.400356 0.72717,-0.27904 3.45779,-6.312672 6.06805,-13.408072 4.84882,-13.180429 6.1739,-16.100292 6.9296,-15.269601 0.23568,0.259072 2.73573,6.721853 5.55566,14.361736 2.81992,7.639883 5.91406,14.488072 6.87585,15.218197 1.51974,1.153677 1.02855,1.323964 -3.75128,1.300496 -4.35105,-0.02136 -5.15921,-0.259142 -3.86864,-1.138246 1.4795,-1.007797 1.49248,-1.518821 0.1395,-5.48962 l -1.49187,-4.378378 -5.00576,0.298428 c -4.80054,0.286192 -5.06997,0.459925 -6.57191,4.237622 -1.15454,2.903913 -1.25539,4.042781 -0.38374,4.333333 C 162.30283,59.600945 160.84718,61 157.5,61 155.575,61 154,60.598145 154,60.106989 Z m 14.80696,-18.212606 -2.0619,-6.105617 -1.87253,5.31723 C 163.84264,44.030472 163,46.778 163,47.211613 163,47.645226 164.77049,48 166.93443,48 h 3.93442 z m 14.55396,17.607464 c 0.31619,-0.823983 3.87221,-6.561483 7.90226,-12.75 4.03005,-6.188516 7.67105,-11.814347 8.09111,-12.501847 0.58043,-0.94997 -0.7915,-1.25 -5.71582,-1.25 -6.38089,0 -6.48955,0.04551 -7.13595,2.988532 C 185.45056,40.778076 184,40.529112 184,35.559017 V 31 h 10.5 c 5.775,0 10.5,0.244086 10.5,0.542414 0,0.443697 -9.67304,15.918896 -15.75644,25.207586 L 187.76998,59 h 7.14001 7.14001 l 0.60416,-3.020809 C 203.61375,51.181235 205,51.454126 205,56.440983 V 61 h -11.10699 c -9.45595,0 -11.02153,-0.222699 -10.53209,-1.498153 z M 210.25,59.607954 c 1.5096,-1.14595 1.75,-3.123389 1.75,-14.394872 0,-11.603338 -0.19595,-13.117642 -1.75,-13.523756 -0.9625,-0.251528 0.725,-0.49584 3.75,-0.542916 4.18584,-0.06514 5.08186,0.157952 3.75,0.933689 -1.52003,0.885335 -1.75,2.673773 -1.75,13.609349 0,10.817801 0.24634,12.777067 1.75,13.918506 1.52242,1.155684 1.03476,1.328439 -3.75,1.328439 -4.78476,0 -5.27242,-0.172755 -3.75,-1.328439 z m 14,0 c 1.5096,-1.14595 1.75,-3.123389 1.75,-14.394872 0,-11.603338 -0.19595,-13.117642 -1.75,-13.523756 -0.9625,-0.251528 0.725,-0.49584 3.75,-0.542916 4.18584,-0.06514 5.08186,0.157952 3.75,0.933689 C 230.22589,32.96781 230,34.771026 230,46.04969 V 59 h 6.38871 6.38871 l 0.6566,-3.5 C 244.36705,50.526551 246,51.162938 246,56.5 V 61 l -11.75,-0.0318 c -9.98587,-0.02703 -11.48726,-0.231253 -10,-1.360243 z M 248.5,60 c 0.33992,-0.55 1.26648,-1 2.05902,-1 C 251.73948,59 252,56.658679 252,46.04969 c 0,-11.278664 -0.22589,-13.08188 -1.75,-13.969591 -1.27234,-0.741072 1.04771,-1.027582 8.5,-1.04969 L 269,31 v 4.559017 c 0,4.970095 -1.45056,5.219059 -2.50252,0.429515 C 265.86718,33.118774 265.62566,33 260.42054,33 H 255 v 5.5 5.5 h 3.5 c 2.38074,0 3.5,-0.460812 3.5,-1.440983 0,-0.792541 0.45,-1.719098 1,-2.059017 0.61633,-0.380914 1,1.322949 1,4.440983 C 264,47.723442 263.55,50 263,50 c -0.55,0 -1,-0.9 -1,-2 0,-1.619048 -0.66667,-2 -3.5,-2 H 255 v 6.5 6.5 h 6.025 c 5.90367,0 6.03717,-0.06083 6.62916,-3.020809 C 268.61375,51.181235 270,51.454126 270,56.440983 V 61 H 258.94098 C 251.82295,61 248.10221,60.643641 248.5,60 Z M 251,27 c 0,-0.592593 3.66667,-1 9,-1 5.33333,0 9,0.407407 9,1 0,0.592593 -3.66667,1 -9,1 -5.33333,0 -9,-0.407407 -9,-1 z m -0.89951,-4.25 c -0.4675,-1.2375 -1.16955,-4.275 -1.56011,-6.75 l -0.71011,-4.5 1.829,2.5 1.82899,2.5 0.63058,-4.5 c 0.34681,-2.475 0.24086,-4.9914042 -0.23546,-5.5920093 -0.47632,-0.6006051 -0.56993,-1.3881051 -0.20804,-1.75 1.30646,-1.3064567 2.32493,-0.6130423 2.33831,1.5920093 0.0192,3.1670435 1.07643,6.75 1.99169,6.75 0.81927,0 2.41273,-6.1434295 2.46407,-9.5 0.0452,-2.95722752 2.01512,-3.42130449 2.12237,-0.5 0.0505,1.375 0.66709,4.525 1.37023,7 1.22828,4.323455 1.31709,4.40192 2.26358,2 0.54182,-1.375 0.96782,-3.7375 0.94666,-5.25 -0.0235,-1.6807627 0.49429,-2.75 1.33176,-2.75 1.0034,0 1.22055,0.9224908 0.81109,3.4457139 -0.30754,1.8951427 -0.24255,4.7071971 0.14442,6.2490111 l 0.70358,2.803296 1.47587,-2.49901 c 1.43169,-2.424203 1.45911,-2.373544 0.91602,1.69228 C 269.33669,24.812089 269.11352,25 259.5,25 c -7.94763,0 -8.60934,-0.158397 -9.39951,-2.25 z M 261,20.440983 C 261,19.648442 260.325,19 259.5,19 c -1.50623,0 -2.05568,2.110991 -0.86052,3.306147 C 259.57272,23.239389 261,22.111627 261,20.440983 Z m -6.54271,0.628115 c 0.31644,-0.511996 0.11799,-1.213553 -0.44098,-1.559017 C 253.45734,19.164618 253,19.583524 253,20.440983 c 0,1.756526 0.60006,2.015159 1.45729,0.628115 z m 11.98992,-1.154508 c -0.32197,-0.520968 -1.01165,-0.683779 -1.53262,-0.361804 -0.52097,0.321976 -0.68378,1.011657 -0.3618,1.532624 0.32197,0.520968 1.01165,0.683779 1.53262,0.361804 0.52097,-0.321976 0.68378,-1.011657 0.3618,-1.532624 z M 245,9.5 c 0,-0.825 0.675,-1.5 1.5,-1.5 0.825,0 1.5,0.675 1.5,1.5 0,0.825 -0.675,1.5 -1.5,1.5 -0.825,0 -1.5,-0.675 -1.5,-1.5 z m 26,0 c 0,-0.9166667 0.48375,-1.5054167 1.075,-1.3083333 C 272.66625,8.38875 273.15,8.9775 273.15,9.5 c 0,0.5225 -0.48375,1.11125 -1.075,1.308333 C 271.48375,11.005417 271,10.416667 271,9.5 Z"
         style="fill:#767676;fill-opacity:1" />
      <path
         id="path28"
         d="m 131.25,59.673784 c 1.50624,-1.200061 1.75,-3.214297 1.75,-14.460702 0,-11.603338 -0.19595,-13.117642 -1.75,-13.523756 -0.9625,-0.251528 1.98295,-0.509524 6.54545,-0.573325 7.55472,-0.105643 8.51464,0.103176 10.75,2.338544 3.19723,3.197228 3.09614,5.057716 -0.46853,8.622378 C 146.46923,43.684615 145.71579,45 146.40261,45 148.69662,45 152,49.546426 152,52.703667 c 0,1.691121 -0.85996,4.137118 -1.91101,5.435549 -1.72484,2.130791 -2.82085,2.388455 -11.25,2.644811 -8.12739,0.247178 -9.11195,0.10314 -7.58899,-1.110243 z m 12.6068,-0.77371 c 3.43609,-1.197826 4.78332,-4.213488 3.7398,-8.371209 -0.68553,-2.731361 -2.46912,-3.942825 -7.3466,-4.990008 L 137,44.841089 v 6.912789 c 0,8.855577 0.48958,9.365821 6.8568,7.146196 z m -0.36198,-15.536459 c 2.47063,-0.948072 3.73281,-5.062644 2.35562,-7.67909 C 144.33155,32.798888 143.05942,32.033741 139.75,32.015313 137.05385,32.0003 137,32.1175 137,38 c 0,5.679219 0.12929,6 2.41821,6 1.33002,0 3.16449,-0.286373 4.07661,-0.636385 z M 155.87599,58.25 c 1.06473,-1.5125 4.06207,-8.4875 6.66075,-15.5 2.59868,-7.0125 5.00351,-12.747294 5.34407,-12.743987 0.34055,0.0033 2.86919,6.157366 5.61919,13.675685 2.75,7.51832 5.87235,14.490614 6.93856,15.493987 1.8909,1.779464 1.80485,1.822869 -3.5,1.765508 -4.31207,-0.04663 -5.10066,-0.288979 -3.8072,-1.17005 1.47571,-1.005215 1.49059,-1.524374 0.156,-5.441192 C 171.81339,50.004102 171.8073,50 166.85497,50 c -4.77529,0 -5.01398,0.136305 -6.51046,3.717901 -1.18044,2.82518 -1.28621,4.14581 -0.4405,5.5 C 160.89285,60.801291 160.6224,61 157.47854,61 h -3.53841 z m 12.88851,-16.481331 -2.10435,-6.231331 -1.75257,4.981331 C 162.37963,47.703843 162.45987,48 166.93443,48 h 3.93442 z m 14.85874,18.430744 c -0.27213,-0.440322 2.98443,-6.177822 7.23679,-12.75 C 195.1124,40.877236 198.93506,34.9375 199.35482,34.25 199.93481,33.300085 198.5625,33 193.63847,33 c -6.38642,0 -6.48903,0.04312 -7.13847,3 -0.94773,4.314977 -2.5,3.694069 -2.5,-1 v -4 h 10.5 c 5.775,0 10.5,0.214557 10.5,0.476793 0,0.262236 -3.51268,5.999736 -7.80596,12.75 -4.29328,6.750264 -8.14484,12.835707 -8.55902,13.523207 -0.57427,0.953233 0.92879,1.25 6.33096,1.25 7.08198,0 7.08419,-8.71e-4 7.68818,-3.020809 C 203.61375,51.181235 205,51.454126 205,56.440983 V 61 h -10.44098 c -5.74254,0 -10.66364,-0.360264 -10.93578,-0.800587 z M 210.25,59.607954 c 1.5096,-1.14595 1.75,-3.123389 1.75,-14.394872 0,-11.603338 -0.19595,-13.117642 -1.75,-13.523756 -0.9625,-0.251528 0.725,-0.49584 3.75,-0.542916 4.18584,-0.06514 5.08186,0.157952 3.75,0.933689 -1.52003,0.885335 -1.75,2.673773 -1.75,13.609349 0,10.817801 0.24634,12.777067 1.75,13.918506 1.52242,1.155684 1.03476,1.328439 -3.75,1.328439 -4.78476,0 -5.27242,-0.172755 -3.75,-1.328439 z m 14,0.331865 c 1.52766,-0.907169 1.75,-2.738751 1.75,-14.416185 0,-11.899101 -0.19334,-13.427511 -1.75,-13.834308 -0.9625,-0.251528 0.725,-0.49584 3.75,-0.542916 4.18584,-0.06514 5.08186,0.157952 3.75,0.933689 C 230.22589,32.96781 230,34.771026 230,46.04969 V 59 h 6.45469 6.45468 l 0.65661,-3.5 c 0.92491,-4.93022 2.61166,-4.365843 2.24152,0.75 L 245.5,60.5 234,60.739509 c -8.31951,0.17327 -11.01601,-0.0479 -9.75,-0.79969 z m 25.5,-0.160314 c 2.15959,-1.041533 2.25,-1.59934 2.25,-13.882629 0,-11.133127 -0.22759,-12.930058 -1.75,-13.816777 -1.27234,-0.741072 1.04771,-1.027582 8.5,-1.04969 L 269,31 v 4.559017 c 0,4.986857 -1.38625,5.259748 -2.34584,0.461792 C 266.06943,33.097132 265.87235,33 260.525,33 H 255 v 5.5 5.5 h 3.5 c 2.44444,0 3.5,-0.452381 3.5,-1.5 0,-0.825 0.45,-1.5 1,-1.5 0.55,0 1,2.025 1,4.5 0,2.475 -0.45,4.5 -1,4.5 -0.55,0 -1,-0.9 -1,-2 0,-1.619048 -0.66667,-2 -3.5,-2 H 255 v 6.5 6.5 h 6.025 c 5.90367,0 6.03717,-0.06083 6.62916,-3.020809 C 268.61375,51.181235 270,51.454126 270,56.440983 V 61 l -11.25,-0.06768 c -8.83933,-0.05318 -10.76787,-0.300205 -9,-1.152815 z M 251,27 c 0,-0.588235 3.5,-1 8.5,-1 5,0 8.5,0.411765 8.5,1 0,0.588235 -3.5,1 -8.5,1 -5,0 -8.5,-0.411765 -8.5,-1 z m -1.86193,-8.666686 c -1.13123,-5.632822 -0.92096,-8.3753517 0.33801,-4.408675 1.60437,5.054904 3.30979,0.100125 2.6416,-7.674639 C 252.01132,5.0125 252.39133,4 252.96215,4 253.53297,4 254,5.4889917 254,7.3088704 c 0,1.8198787 0.59239,4.1190186 1.31643,5.1091986 1.17564,1.607778 1.44761,1.214175 2.54291,-3.680144 0.67456,-3.0142602 1.09467,-5.8758998 0.93357,-6.3591991 C 258.63181,1.8954267 258.95,1.275 259.5,1 c 0.55,-0.275 1.0413,0.625 1.09178,2 0.0505,1.375 0.67574,4.525 1.38946,7 l 1.29767,4.5 1.33785,-3 c 0.73582,-1.65 1.11449,-4.0125 0.84149,-5.25 -0.33002,-1.4960017 -0.0285,-2.25 0.89986,-2.25 1.06109,0 1.27573,1.0689509 0.89424,4.4535429 -0.27609,2.4494491 -0.20843,5.2185221 0.15035,6.1534971 0.59918,1.561422 0.76974,1.544835 2.09301,-0.203543 1.77935,-2.350962 1.89294,-0.832626 0.38558,5.153683 L 268.76257,24 h -9.24323 -9.24324 z m 12.2919,1.553379 C 260.57786,18.507953 258,18.843634 258,20.333333 c 0,0.733334 0.2961,1.629429 0.65799,1.991324 0.90433,0.904332 3.45253,-1.336814 2.77198,-2.437964 z M 255,20.5 c 0,-0.825 -0.45,-1.5 -1,-1.5 -0.55,0 -1,0.675 -1,1.5 0,0.825 0.45,1.5 1,1.5 0.55,0 1,-0.675 1,-1.5 z m 11.44721,-0.58541 c -0.32197,-0.520968 -1.01165,-0.683779 -1.53262,-0.361804 -0.52097,0.321976 -0.68378,1.011657 -0.3618,1.532624 0.32197,0.520968 1.01165,0.683779 1.53262,0.361804 0.52097,-0.321976 0.68378,-1.011657 0.3618,-1.532624 z M 245.69385,10.36052 C 244.89492,9.5615892 245.79804,8 247.05902,8 247.57656,8 248,8.675 248,9.5 c 0,1.54641 -1.17996,1.986704 -2.30615,0.86052 z M 271,9.5 c 0,-0.825 0.45,-1.5 1,-1.5 0.55,0 1,0.675 1,1.5 0,0.825 -0.45,1.5 -1,1.5 -0.55,0 -1,-0.675 -1,-1.5 z"
         style="fill:#606060;fill-opacity:1" />
      <path
         id="path26"
         d="m 131.25,59.607954 c 1.5096,-1.14595 1.75,-3.123389 1.75,-14.394872 0,-11.603338 -0.19595,-13.117642 -1.75,-13.523756 -0.9625,-0.251528 1.91265,-0.509524 6.38922,-0.573325 8.79379,-0.12533 11.51431,1.073311 12.85005,5.661644 0.51153,1.757155 -0.0641,2.95689 -2.51886,5.25 C 146.0825,43.791216 145.37062,45 146.21993,45 c 2.41398,0 5.7822,4.432417 5.74827,7.564451 -0.0665,6.136988 -4.09364,8.446711 -14.65246,8.403746 -6.71419,-0.02732 -7.56909,-0.219035 -6.06574,-1.360243 z m 12.6068,-0.70788 c 5.78238,-2.015747 5.55175,-9.995771 -0.36027,-12.465972 C 137.40299,43.888058 137,44.222977 137,51.833333 c 0,8.769135 0.49876,9.283167 6.8568,7.066741 z m 0.61874,-16.258528 c 1.1573,-0.846239 1.85779,-2.596366 1.85779,-4.641546 0,-3.821972 -2.36841,-6 -6.52446,-6 C 137.04247,32 137,32.09073 137,38 c 0,5.909273 0.0425,6 2.80887,6 1.54488,0 3.64488,-0.611304 4.66667,-1.358454 z m 11.27978,15.942384 c 1.04526,-1.328838 4.06266,-8.293476 6.70533,-15.476972 2.64267,-7.183496 5.12551,-12.862726 5.51742,-12.620511 0.39191,0.242215 2.88226,6.419353 5.5341,13.726972 2.78712,7.680427 5.70049,14.015596 6.90468,15.014345 2.0255,1.679948 1.93094,1.7275 -3.41685,1.718197 -4.75496,-0.0083 -5.26563,-0.187556 -3.76985,-1.323495 1.61883,-1.229381 1.62515,-1.581238 0.0983,-5.468197 C 171.71129,50.037348 171.65071,50 166.59043,50 h -5.10619 l -1.56933,4.36411 c -1.42748,3.969654 -1.42677,4.461464 0.008,5.441193 1.25845,0.859402 0.80466,1.088967 -2.24537,1.13589 L 153.85484,61 Z M 171,47.678139 c 0,-0.903008 -3.3535,-10.277342 -3.89622,-10.891445 -0.34672,-0.392318 -1.57048,1.970182 -2.71948,5.25 L 162.29521,48 h 4.35239 C 169.04142,48 171,47.855162 171,47.678139 Z M 183.63504,60.2185 c -0.26565,-0.429825 2.88779,-5.942325 7.00763,-12.25 C 201.49298,31.356162 201.17807,33 193.51018,33 187.02109,33 186.9435,33.03251 186.35,36 185.4854,40.323002 184,39.690917 184,35 v -4 h 10 c 6.90411,0 10,0.358162 10,1.156894 0,0.636291 -3.29514,6.373791 -7.32254,12.75 -4.0274,6.376208 -7.65396,12.155606 -8.05902,12.843106 -0.56073,0.951716 0.95549,1.25 6.35393,1.25 5.87575,0 7.18499,-0.29979 7.64254,-1.75 1.71394,-5.432263 2.25095,-5.663993 2.31741,-1 L 205,61 h -10.44098 c -5.74254,0 -10.65833,-0.351675 -10.92398,-0.7815 z M 210.25,59.607954 c 1.5096,-1.14595 1.75,-3.123389 1.75,-14.394872 0,-11.603338 -0.19595,-13.117642 -1.75,-13.523756 -0.9625,-0.251528 0.725,-0.49584 3.75,-0.542916 4.18584,-0.06514 5.08186,0.157952 3.75,0.933689 C 216.22644,32.96749 216,34.76866 216,46 c 0,11.23134 0.22644,13.03251 1.75,13.919901 1.34066,0.780865 0.46351,1.018955 -3.75,1.017887 -4.78491,-0.0012 -5.27247,-0.174113 -3.75,-1.329834 z m 14,0.331865 c 1.52766,-0.907169 1.75,-2.738751 1.75,-14.416185 0,-11.899101 -0.19334,-13.427511 -1.75,-13.834308 -0.9625,-0.251528 0.725,-0.49584 3.75,-0.542916 4.18584,-0.06514 5.08186,0.157952 3.75,0.933689 C 230.22589,32.96781 230,34.771026 230,46.04969 V 59 h 6.45469 6.45468 l 0.65661,-3.5 c 0.92491,-4.93022 2.61166,-4.365843 2.24152,0.75 L 245.5,60.5 234,60.739509 c -8.31951,0.17327 -11.01601,-0.0479 -9.75,-0.79969 z m 25.5,-0.160314 c 2.15959,-1.041533 2.25,-1.59934 2.25,-13.882629 0,-11.133127 -0.22759,-12.930058 -1.75,-13.816777 -1.27234,-0.741072 1.04771,-1.027582 8.5,-1.04969 L 269,31 v 4.559017 c 0,4.986857 -1.38625,5.259748 -2.34584,0.461792 C 266.06943,33.097132 265.87235,33 260.525,33 H 255 v 5.5 5.5 h 3.5 c 2.44444,0 3.5,-0.452381 3.5,-1.5 0,-0.825 0.45,-1.5 1,-1.5 0.55,0 1,2.051558 1,4.559017 0,2.784701 -0.38919,4.318485 -1,3.940983 -0.55,-0.339919 -1,-1.266476 -1,-2.059017 C 262,46.460812 260.88074,46 258.5,46 H 255 v 6.5 6.5 h 6.025 c 5.90367,0 6.03717,-0.06083 6.62916,-3.020809 C 268.61375,51.181235 270,51.454126 270,56.440983 V 61 l -11.25,-0.06768 c -8.83933,-0.05318 -10.76787,-0.300205 -9,-1.152815 z M 251,27 c 0,-0.588235 3.5,-1 8.5,-1 5,0 8.5,0.411765 8.5,1 0,0.588235 -3.5,1 -8.5,1 -5,0 -8.5,-0.411765 -8.5,-1 z m -0.87603,-5.25 c -0.45459,-1.2375 -1.11051,-3.825 -1.45759,-5.75 -0.55333,-3.068876 -0.46568,-3.284438 0.71152,-1.75 1.88761,2.460421 2.61969,2.182847 2.63741,-1 0.025,-4.4920308 1.64659,-6.0658534 2.45545,-2.38314 0.92791,4.224758 2.21537,3.950379 2.99046,-0.637315 1.0831,-6.410832 2.21148,-7.0794816 3.61797,-2.1439246 1.73567,6.0906866 2.46584,6.5944516 3.97167,2.7401436 L 266.35019,7.5 l 0.3679,3 c 0.65594,5.34878 1.15732,6.028926 2.87756,3.903497 1.45642,-1.799478 1.50692,-1.746845 0.92415,0.963166 -0.33906,1.576665 -0.87597,4.164165 -1.19313,5.75 L 268.75,24 h -8.89975 c -8.31781,0 -8.9538,-0.147125 -9.72628,-2.25 z m 10.75568,-2.39501 c -0.87143,-1.050011 -1.47465,-1.106074 -2.52466,-0.234642 -1.05001,0.871431 -1.10607,1.474651 -0.23464,2.524662 0.87143,1.050011 1.47465,1.106074 2.52466,0.234642 1.05001,-0.871431 1.10607,-1.474651 0.23464,-2.524662 z M 255,20.5 c 0,-0.825 -0.45,-1.5 -1,-1.5 -0.55,0 -1,0.675 -1,1.5 0,0.825 0.45,1.5 1,1.5 0.55,0 1,-0.675 1,-1.5 z m 11.075,0.225 c -0.12369,-1.195703 -1.49529,-0.964135 -1.925,0.325 -0.22,0.66 0.14,1.02 0.8,0.8 0.66,-0.22 1.16625,-0.72625 1.125,-1.125 z M 245.69385,10.36052 C 244.89492,9.5615892 245.79804,8 247.05902,8 247.57656,8 248,8.675 248,9.5 c 0,1.54641 -1.17996,1.986704 -2.30615,0.86052 z M 271,9.5 c 0,-0.825 0.45,-1.5 1,-1.5 0.55,0 1,0.675 1,1.5 0,0.825 -0.45,1.5 -1,1.5 -0.55,0 -1,-0.675 -1,-1.5 z m -19,-4 c 0,-0.825 0.45,-1.5 1,-1.5 0.55,0 1,0.675 1,1.5 0,0.825 -0.45,1.5 -1,1.5 -0.55,0 -1,-0.675 -1,-1.5 z m 13.55279,0.5854102 c -0.32198,-0.5209675 -0.15917,-1.2106482 0.3618,-1.5326238 0.52097,-0.3219756 1.21065,-0.1591641 1.53262,0.3618034 0.32198,0.5209675 0.15917,1.2106482 -0.3618,1.5326238 -0.52097,0.3219756 -1.21065,0.1591641 -1.53262,-0.3618034 z m -7.01008,-4.0163119 c -0.68308,-1.10523086 0.8944,-2.29865218 1.81781,-1.37524514 C 261.31131,1.6446388 261.13411,3 260.05902,3 259.54148,3 258.85914,2.5810942 258.54271,2.0690983 Z"
         style="fill:#494949;fill-opacity:1" />
      <path
         id="path24"
         d="m 132.95022,60.25 c -0.0274,-0.4125 -0.007,-6.900508 0.0461,-14.417795 0.0867,-12.357191 -0.0763,-13.7125 -1.70023,-14.133999 -0.98786,-0.256412 1.81626,-0.518404 6.23138,-0.582205 C 147.24862,30.975526 150,32.377917 150,37.473297 c 0,2.50128 -0.70275,3.884203 -2.75,5.411616 -1.86772,1.393475 -2.24448,2.061891 -1.17431,2.083407 2.55636,0.0514 5.92717,4.396762 5.89251,7.596131 C 151.90548,58.352968 147.85676,61 139.06574,61 c -3.33616,0 -6.08814,-0.3375 -6.11552,-0.75 z m 13.76469,-2.874799 c 3.37968,-4.621983 0.27517,-10.83408 -5.96491,-11.935738 L 137,44.777418 v 7.74296 7.74296 L 141.21491,59.698 c 2.32974,-0.312483 4.78969,-1.351388 5.5,-2.322799 z M 145,42 c 1.1,-1.1 2,-2.9 2,-4 0,-2.947999 -3.56067,-6 -7,-6 h -3 v 6 6 h 3 c 1.66667,0 3.88889,-0.888889 5,-2 z m 10.11881,17.655073 c 0.86943,-0.635741 3.96594,-7.553007 6.88114,-15.3717 2.9152,-7.818694 5.61587,-14.020806 6.00151,-13.782472 0.38563,0.238335 2.85957,6.410632 5.49764,13.716217 2.63807,7.305585 5.23508,13.845382 5.77114,14.532882 0.73473,0.942301 0.1915,1.25 -2.20681,1.25 -1.8416,0 -2.92418,-0.416293 -2.57055,-0.988473 0.336,-0.543661 -0.2983,-3.043894 -1.40956,-5.556075 -2.01926,-4.564863 -2.02325,-4.567418 -6.65763,-4.261527 -4.52113,0.298417 -4.68165,0.423654 -6.41551,5.005319 -0.9781,2.584585 -1.58659,4.891008 -1.35222,5.125385 0.23438,0.234377 -0.82172,0.664684 -2.34689,0.956239 -2.27765,0.4354 -2.49064,0.323607 -1.19226,-0.625795 z M 171,47.678139 c 0,-0.900733 -3.35282,-10.276611 -3.89399,-10.889213 -0.34549,-0.391091 -1.60513,1.971409 -2.7992,5.25 L 162.13577,48 h 4.43212 C 169.00555,48 171,47.855162 171,47.678139 Z m 43.5,12.618745 -3,-0.383042 0.30172,-13.873636 c 0.27553,-12.669649 0.14536,-13.914189 -1.5,-14.34092 -0.99095,-0.257006 0.67328,-0.467283 3.69828,-0.467283 3.025,0 4.7125,0.205795 3.75,0.457323 -1.55666,0.406797 -1.75,1.935207 -1.75,13.834308 0,11.685022 0.22135,13.505908 1.75,14.396267 0.9625,0.560605 1.3,0.960949 0.75,0.889653 -0.55,-0.07129 -2.35,-0.301997 -4,-0.51267 z m 10.12722,0.0099 c 1.58903,-0.572554 2.349,-6.232298 2.36177,-17.589022 0.0104,-9.214887 -0.11948,-9.834676 -2.23899,-10.686614 -1.73291,-0.696546 -0.98601,-0.892298 3.25,-0.851774 3.025,0.02894 4.7125,0.25841 3.75,0.509938 C 230.19293,32.09623 230,33.626899 230,45.573324 V 59 h 6.40066 6.40066 l 0.99599,-3.75 0.99599,-3.75 0.10335,4.25 L 245,60 l -8.75,0.01365 c -4.8125,0.0075 -9.65,0.167924 -10.75,0.356476 -1.1,0.188552 -1.49275,0.160052 -0.87278,-0.06333 z M 250.56667,59.70031 C 251.69982,59.068095 252,56.09915 252,45.523634 c 0,-11.899101 -0.19334,-13.427511 -1.75,-13.834308 -0.9625,-0.251528 2.58125,-0.509524 7.875,-0.573325 L 267.75,31 l 0.625,3.125 c 0.82807,4.140328 0.79039,4.875 -0.25,4.875 -0.48125,0 -1.145,-1.35 -1.475,-3 -0.57979,-2.898944 -0.78611,-3 -6.125,-3 H 255 v 5.5 5.5 h 3.42668 c 2.42261,0 3.56067,-0.512772 3.88399,-1.75 0.25153,-0.9625 0.45733,0.275 0.45733,2.75 0,2.475 -0.2058,3.7125 -0.45733,2.75 C 261.98735,46.512772 260.84929,46 258.42668,46 H 255 v 6.547717 6.547718 l 6.19023,-0.297718 C 267.31539,58.503129 267.39126,58.463212 268.40905,55 l 1.0286,-3.5 0.34752,3.850321 c 0.19114,2.117676 0.20517,3.987222 0.0312,4.154547 -0.17399,0.167325 -4.89885,0.459681 -10.49968,0.64968 -5.60084,0.189998 -9.53834,-0.01441 -8.75,-0.454238 z M 184,59.095416 c 0,-0.497521 3.09843,-5.605753 6.88541,-11.351627 C 201.46599,31.690162 201.22805,33 193.56378,33 c -6.48161,0 -6.5102,0.01248 -7.445,3.25 l -0.9384,3.25 -0.0902,-4.25 L 185,31 h 9.5 c 6.64686,0 9.5,0.355323 9.5,1.183107 0,0.650708 -3.6,6.752469 -8,13.559469 -4.4,6.806999 -8,12.574601 -8,12.816893 C 188,58.801761 191.16412,59 195.03138,59 c 5.81955,0 7.12655,-0.301607 7.58353,-1.75 1.68769,-5.349073 2.25031,-5.713243 2.31741,-1.5 L 205,60 H 194.5 C 188.725,60 184,59.592937 184,59.095416 Z M 251,27 c 0,-0.588235 3.5,-1 8.5,-1 5,0 8.5,0.411765 8.5,1 0,0.588235 -3.5,1 -8.5,1 -5,0 -8.5,-0.411765 -8.5,-1 z m -0.50472,-4.25 c -0.24307,-0.6875 -0.87581,-3.275 -1.4061,-5.75 -0.80823,-3.772257 -0.75428,-4.216989 0.33358,-2.75 1.82973,2.467408 2.57485,2.18 2.59255,-1 0.025,-4.4920308 1.64659,-6.0658534 2.45545,-2.38314 0.98483,4.483906 2.02931,3.887293 3.70596,-2.11686 l 1.46605,-5.25 1.34719,4.5 c 1.85505,6.196377 2.55172,6.67804 4.08711,2.825764 L 266.40261,7.5 l 0.3562,4.25 c 0.39362,4.696674 0.84889,5.085381 2.92807,2.5 1.25451,-1.559936 1.3341,-1.369872 0.73284,1.75 -1.55518,8.069599 -1.46012,8 -10.92635,8 -5.94254,0 -8.69114,-0.381831 -8.99809,-1.25 z m 10.75042,-1 c 0.67088,-1.824287 -0.21344,-3.75 -1.72204,-3.75 -1.80464,0 -2.61146,2.5122 -1.24552,3.878145 1.46037,1.460364 2.39829,1.419863 2.96756,-0.128145 z M 255,20.5 c 0,-0.825 -0.42344,-1.5 -0.94098,-1.5 -1.26098,0 -2.1641,1.561589 -1.36517,2.36052 C 253.82004,22.486704 255,22.04641 255,20.5 Z m 11.77083,0.3125 C 266.15276,18.958277 264,18.65074 264,20.416667 264,21.2875 264.7125,22 265.58333,22 c 0.87084,0 1.40521,-0.534375 1.1875,-1.1875 z M 245.69385,10.36052 C 244.89492,9.5615892 245.79804,8 247.05902,8 247.57656,8 248,8.675 248,9.5 c 0,1.54641 -1.17996,1.986704 -2.30615,0.86052 z M 271,10.059017 c 0,-0.5175407 0.45,-1.2190983 1,-1.559017 0.55,-0.3399187 1,0.083524 1,0.940983 C 273,10.298442 272.55,11 272,11 c -0.55,0 -1,-0.423442 -1,-0.940983 z M 252.58295,6.1342147 c -0.43077,-0.6970024 -0.51316,-1.537338 -0.18309,-1.8674125 0.89497,-0.894961 1.87077,0.4213023 1.38739,1.8714436 -0.33872,1.0161751 -0.57427,1.0153866 -1.2043,-0.00403 z m 12.96984,-0.048805 c -0.32198,-0.5209675 -0.15917,-1.2106482 0.3618,-1.5326238 0.52097,-0.3219756 1.21065,-0.1591641 1.53262,0.3618034 0.32198,0.5209675 0.15917,1.2106482 -0.3618,1.5326238 -0.52097,0.3219756 -1.21065,0.1591641 -1.53262,-0.3618034 z m -7,-4 c -0.32198,-0.5209675 -0.15917,-1.21064819 0.3618,-1.5326238 0.52097,-0.3219756 1.21065,-0.15916407 1.53262,0.3618034 0.32198,0.5209675 0.15917,1.2106482 -0.3618,1.5326238 -0.52097,0.3219756 -1.21065,0.1591641 -1.53262,-0.3618034 z"
         style="fill:#333333;fill-opacity:1" />
    </g>
  </g>
</svg>
