<?xml version="1.0" standalone="no"?>
<!DOCTYPE svg PUBLIC "-//W3C//DTD SVG 20010904//EN"
 "http://www.w3.org/TR/2001/REC-SVG-20010904/DTD/svg10.dtd">
<svg version="1.0" xmlns="http://www.w3.org/2000/svg"
 width="900.000000pt" height="186.000000pt" viewBox="0 0 900.000000 186.000000"
 preserveAspectRatio="xMidYMid meet">
<metadata>
Created by potrace 1.10, written by Peter Selinger 2001-2011
</metadata>
<g transform="translate(0.000000,186.000000) scale(0.100000,-0.100000)"
fill="#000000" stroke="none">
<path d="M5797 1833 c-3 -15 0 -37 6 -50 8 -18 7 -37 -2 -71 -7 -26 -15 -78
-18 -115 -3 -37 -9 -70 -13 -72 -4 -2 -17 7 -30 20 -21 22 -23 35 -24 122 l-1
98 -31 3 c-44 4 -62 -20 -40 -53 12 -18 16 -49 16 -125 0 -55 -4 -100 -9 -100
-12 0 -51 49 -51 64 0 7 -5 17 -12 24 -6 6 -12 31 -12 54 -1 42 -2 43 -36 43
-32 0 -35 -3 -38 -32 -3 -26 2 -34 25 -45 23 -11 30 -23 39 -68 19 -89 51
-201 62 -212 10 -10 398 -15 408 -5 3 3 11 29 19 59 7 29 21 78 30 108 9 30
19 68 22 83 3 17 15 33 29 39 45 21 22 83 -28 76 -20 -3 -24 -10 -28 -53 -3
-27 -11 -59 -17 -70 -6 -11 -14 -28 -17 -37 -3 -10 -12 -18 -20 -18 -19 0 -24
20 -27 105 -3 54 1 76 15 97 26 40 14 70 -27 66 l-32 -3 2 -55 c2 -46 -10
-112 -33 -179 -10 -31 -32 15 -43 94 -7 44 -17 94 -23 112 -9 24 -9 35 1 47 8
9 10 27 6 46 -5 25 -12 30 -35 30 -22 0 -29 -5 -33 -27z m75 -407 c21 -31 -4
-86 -38 -86 -34 0 -54 21 -54 54 0 24 6 36 23 44 24 11 58 6 69 -12z m-144
-24 c5 -33 -15 -54 -39 -41 -22 11 -25 39 -7 57 19 19 43 10 46 -16z m257 -7
c0 -25 -4 -30 -27 -33 -25 -3 -28 0 -28 26 0 35 8 44 35 40 15 -2 20 -10 20
-33z"/>
<path d="M5626 1256 c-3 -11 -3 -23 0 -28 8 -12 401 -10 409 2 3 6 4 18 1 28
-5 15 -24 17 -205 17 -189 0 -200 -1 -205 -19z"/>
<path d="M3721 1115 c-13 -41 -27 -77 -32 -80 -5 -4 -9 -13 -9 -22 0 -8 -7
-29 -15 -46 -19 -42 -75 -190 -75 -199 0 -4 -5 -19 -12 -35 -6 -15 -25 -64
-42 -107 -30 -76 -39 -88 -78 -100 -11 -3 -18 -15 -18 -29 0 -24 1 -24 96 -24
l95 0 -3 26 c-2 20 -9 27 -30 29 -20 2 -28 9 -28 22 0 10 5 22 10 25 6 3 10
13 10 22 0 8 6 29 14 46 7 18 18 44 24 59 11 26 13 27 112 30 60 2 105 -1 110
-7 9 -12 61 -153 63 -175 1 -9 -10 -16 -28 -20 -24 -4 -30 -10 -30 -30 l0 -25
125 2 c69 1 236 2 372 2 135 0 248 4 251 8 3 4 6 51 8 103 4 85 2 95 -14 98
-30 6 -44 -16 -52 -76 -4 -31 -12 -63 -17 -70 -8 -8 -51 -12 -154 -12 -142 0
-174 7 -141 33 13 10 71 97 228 342 22 33 43 65 49 72 5 7 10 15 10 19 0 3 13
23 29 43 37 48 63 99 56 111 -4 6 -99 10 -239 10 l-234 0 -4 -92 c-6 -106 -3
-118 23 -118 23 0 35 27 44 93 4 27 12 50 18 52 7 2 68 5 135 8 135 5 154 -3
115 -46 -20 -22 -153 -215 -153 -222 0 -2 -19 -32 -42 -67 -24 -35 -47 -71
-53 -80 -29 -47 -95 -145 -105 -156 -8 -9 -23 -11 -43 -6 -40 8 -53 19 -60 47
-3 12 -15 47 -27 77 -12 30 -25 66 -30 80 -11 31 -62 167 -90 240 -12 30 -31
87 -42 125 -24 80 -34 95 -58 95 -13 0 -23 -19 -39 -75z m43 -117 c1 -7 17
-57 35 -110 18 -54 30 -102 27 -107 -9 -13 -160 -5 -164 9 -3 7 0 22 6 33 9
18 38 106 58 175 2 6 10 12 19 12 9 0 17 -6 19 -12z"/>
<path d="M3090 1169 c-19 -5 -65 -6 -102 -3 -48 5 -72 3 -83 -6 -21 -18 -1
-40 36 -40 15 0 31 -5 35 -12 4 -7 7 -136 6 -287 -2 -294 -1 -291 -53 -291
-15 0 -29 -7 -33 -15 -14 -37 0 -40 178 -43 152 -2 180 0 218 17 93 40 134
117 121 224 -5 40 -12 53 -46 82 -21 19 -52 37 -68 40 -16 4 -29 10 -29 14 0
11 34 41 46 41 6 0 23 14 39 30 25 26 29 38 29 84 -2 94 -59 146 -182 165 -39
6 -72 11 -74 10 -2 -1 -19 -5 -38 -10z m134 -68 c62 -35 80 -122 37 -180 -25
-33 -160 -68 -177 -46 -10 13 -9 210 1 242 5 17 101 6 139 -16z m6 -296 c54
-28 90 -84 90 -142 0 -45 -39 -109 -75 -123 -26 -10 -152 -16 -160 -8 -4 4 -9
244 -6 286 1 16 112 6 151 -13z"/>
<path d="M4689 1154 c-12 -14 7 -31 41 -36 l25 -3 0 -290 0 -290 -35 -5 c-29
-4 -35 -9 -35 -30 l0 -24 123 -1 123 -1 -3 25 c-2 21 -9 27 -38 31 l-35 5 -3
277 c-3 301 -1 308 54 308 23 0 43 24 31 36 -11 11 -239 9 -248 -2z"/>
<path d="M5002 1146 c2 -11 17 -23 38 -30 l35 -11 3 -246 c3 -287 -2 -323 -41
-327 -26 -3 -55 -37 -42 -50 10 -11 509 -1 520 9 14 13 24 171 12 187 -17 22
-46 14 -53 -15 -3 -16 -10 -38 -15 -51 -5 -13 -9 -34 -9 -47 0 -33 -19 -36
-160 -33 l-115 3 -2 277 c-3 301 -2 308 53 308 23 0 43 24 31 37 -4 3 -63 6
-132 7 -118 1 -126 0 -123 -18z"/>
<path d="M5573 1153 c-7 -19 6 -33 31 -33 45 0 46 -11 44 -306 l-3 -279 -35
-5 c-28 -4 -36 -10 -38 -30 l-3 -25 243 3 c212 3 245 6 256 20 9 12 12 44 10
102 -3 84 -3 85 -30 88 -28 3 -29 2 -43 -95 -4 -23 -12 -47 -20 -53 -8 -7 -55
-10 -126 -8 l-114 3 0 140 0 140 42 3 c57 4 80 -11 93 -59 10 -38 33 -59 47
-45 11 11 5 228 -6 239 -15 15 -41 -10 -41 -39 0 -36 -21 -49 -81 -49 l-54 0
-3 118 c-2 89 0 117 10 118 46 5 205 -5 214 -12 6 -5 14 -32 18 -59 4 -28 9
-57 12 -65 7 -18 54 -20 55 -2 3 41 -4 183 -9 189 -4 3 -110 8 -236 10 -171 2
-230 0 -233 -9z"/>
</g>
</svg>
